<svg preserveAspectRatio="none" overflow="visible" style="display: block;" width="16" height="16" viewBox="0 0 16 16" fill="none" xmlns="http://www.w3.org/2000/svg">
<g id="Icon/page-edit">
<path id="Vector" d="M13.3333 8V3.83235C13.3333 3.72627 13.2912 3.62453 13.2162 3.54951L11.1171 1.45049C11.0421 1.37547 10.9404 1.33333 10.8343 1.33333H3.06667C2.84575 1.33333 2.66667 1.51242 2.66667 1.73333V14.2667C2.66667 14.4876 2.84575 14.6667 3.06667 14.6667H7.33333" stroke="#0F6B3F" stroke-linecap="round" stroke-linejoin="round"/>
<path id="Vector_2" d="M5.33333 6.66667H10.6667M5.33333 4H8M5.33333 9.33333H7.33333" stroke="#0F6B3F" stroke-linecap="round" stroke-linejoin="round"/>
<path id="Vector_3" d="M11.9689 11.2929L12.6356 10.6263C12.9275 10.3343 13.4008 10.3343 13.6927 10.6263C13.9847 10.9182 13.9847 11.3915 13.6927 11.6835L13.0261 12.3501L11.032 14.3442C10.9321 14.4441 10.8029 14.5097 10.6633 14.5315L9.62573 14.6933L9.78753 13.6557C9.80933 13.5161 9.87493 13.3869 9.97487 13.287L11.9689 11.2929ZM13.0261 12.3501L11.9689 11.2929" stroke="#0F6B3F" stroke-linecap="round" stroke-linejoin="round"/>
<path id="Vector_4" d="M10.6667 1.33333V3.6C10.6667 3.82091 10.8457 4 11.0667 4H13.3333" stroke="#0F6B3F" stroke-linecap="round" stroke-linejoin="round"/>
</g>
</svg>
